<svg width="1239" height="732" viewBox="0 0 1239 732" fill="none" xmlns="http://www.w3.org/2000/svg">
<path fill-rule="evenodd" clip-rule="evenodd" d="M1949.57 368.552C1816.45 461.795 1699.89 584.296 1558.61 667.045C1420.34 748.037 1249.51 756.256 1080.43 777.615C915.14 798.495 768.668 869.884 634.645 958.79C499.401 1048.51 365.327 1136.95 212.198 1186.81C176.838 1111.73 141.477 1036.65 106.118 961.571C70.7572 886.491 35.3967 811.413 0.00109863 736.257C210.814 808.422 392.778 815.337 527.741 729.099C667.044 640.086 760.801 484.968 868.788 326.895C970.581 177.887 1110.61 86.4151 1262.77 35.7309C1416.1 -15.343 1577.25 -46.5378 1737.37 -81.9983C1772.77 -6.84253 1808.13 68.2359 1843.49 143.315C1878.85 218.395 1914.21 293.473 1949.57 368.553V368.552Z" fill="#6C5FA4"/>
<path fill-rule="evenodd" clip-rule="evenodd" d="M2056 446.311C1942.03 562.181 1849.65 703.815 1725.76 810.845C1604.5 915.602 1438 954.711 1275.61 1006.43C1116.86 1056.98 985.793 1153.78 870.146 1265.55C753.445 1378.34 637.663 1489.66 496.138 1566.5C447.73 1499.09 399.322 1431.69 350.913 1364.28C302.504 1296.87 254.096 1229.46 205.639 1161.98C426.052 1194.66 606.246 1168.41 723.301 1059.1C844.121 946.262 908.146 776.696 985.628 601.639C1058.66 436.623 1179.75 321.237 1320.17 243.762C1461.68 165.69 1614.48 105.746 1765.5 41.7924C1813.96 109.269 1862.37 176.677 1910.77 244.086C1959.18 311.495 2007.59 378.903 2056 446.311Z" fill="#5A4E8B"/>
</svg>
